<?xml version="1.0" standalone="no"?>
<!DOCTYPE svg PUBLIC "-//W3C//DTD SVG 20010904//EN"
 "http://www.w3.org/TR/2001/REC-SVG-20010904/DTD/svg10.dtd">
<svg version="1.0" xmlns="http://www.w3.org/2000/svg"
 width="256.000000pt" height="256.000000pt" viewBox="0 0 256.000000 256.000000"
 preserveAspectRatio="xMidYMid meet">
<metadata>
Created by potrace 1.11, written by Peter Selinger 2001-2013
</metadata>
<g transform="translate(0.000000,256.000000) scale(0.100000,-0.100000)"
fill="#000000" stroke="none">
<path d="M1210 2547 c-3 -2 -39 -7 -80 -11 -155 -13 -363 -85 -513 -178 -297
-182 -491 -453 -580 -808 -18 -72 -21 -115 -21 -275 -1 -167 2 -202 23 -285
63 -254 165 -434 346 -615 243 -244 554 -373 895 -373 618 0 1148 444 1255
1053 21 118 21 315 0 435 -31 180 -109 367 -216 520 -113 161 -330 342 -501
419 -87 39 -239 87 -303 96 -27 4 -58 9 -69 11 -37 7 -231 16 -236 11z m250
-101 c490 -75 885 -451 984 -940 80 -389 -54 -815 -341 -1087 -231 -218 -507
-329 -822 -329 -198 0 -355 36 -525 122 -411 204 -658 602 -658 1058 0 387
172 730 482 960 250 185 568 263 880 216z"/>
<path d="M644 1785 c-2 -5 -3 -208 -2 -450 l3 -440 239 -3 c132 -1 237 1 233
4 -3 4 -2 14 3 24 8 15 28 17 159 18 l149 1 6 -25 6 -24 238 2 237 3 3 448 c1
246 -1 448 -5 448 -5 1 -291 2 -637 3 -411 1 -630 -2 -632 -9z m1148 -117 c0
-7 2 -158 3 -336 l1 -322 -520 2 -521 3 -1 320 c0 176 2 326 4 333 3 9 116 12
518 12 404 0 514 -3 516 -12z m-202 -718 c0 -20 -17 -30 -37 -22 -16 5 -17 24
-2 39 16 16 39 5 39 -17z m85 14 c22 -22 2 -48 -26 -33 -15 8 -17 14 -9 29 13
24 14 24 35 4z"/>
<path d="M967 843 c-9 -9 -9 -73 1 -74 21 -4 569 -5 580 -1 7 2 12 21 12 43
l0 39 -293 0 c-162 0 -297 -3 -300 -7z"/>
</g>
</svg>
